<svg height="512" viewBox="0 0 64 64" width="512" xmlns="http://www.w3.org/2000/svg"><g id="flat"><path d="m32 11a21 21 0 0 0 -21 21v27a2 2 0 0 0 4 0v-27a17 17 0 0 1 34 0v27a2 2 0 0 0 4 0v-27a21 21 0 0 0 -21-21z" fill="#fcf05a"/><path d="m32 15a17 17 0 0 0 -17 17v12a2 2 0 0 0 4 0v-12a13 13 0 0 1 26 0v12a2 2 0 0 0 4 0v-12a17 17 0 0 0 -17-17z" fill="#409650"/><path d="m32 3a29 29 0 0 0 -29 29v18a2 2 0 0 0 4 0v-18a25 25 0 0 1 50 0v12a2 2 0 0 0 4 0v-12a29 29 0 0 0 -29-29z" fill="#e1462b"/><path d="m32 19a13 13 0 0 0 -13 13v22a2 2 0 0 0 4 0v-22a9 9 0 0 1 18 0v22a2 2 0 0 0 4 0v-22a13 13 0 0 0 -13-13z" fill="#2d75bb"/><path d="m32 7a25 25 0 0 0 -25 25v24a2 2 0 0 0 4 0v-24a21 21 0 0 1 42 0v22a2 2 0 0 0 4 0v-22a25 25 0 0 0 -25-25z" fill="#e97424"/><path d="m32 23a9 9 0 0 0 -9 9v16a2 2 0 0 0 4 0v-16a5 5 0 0 1 10 0v16a2 2 0 0 0 4 0v-16a9 9 0 0 0 -9-9z" fill="#5f3894"/></g></svg>